<svg width="65" height="65" viewBox="0 0 65 65" fill="none" xmlns="http://www.w3.org/2000/svg">
<path d="M64.895 32.44H52.7571C52.7571 32.44 52.7403 33.3974 52.7065 33.8655C51.9769 44.1688 43.3859 52.3001 32.8971 52.3001C22.3661 52.3001 13.7498 44.1055 13.0792 33.7432C13.0497 33.313 13.0371 32.44 13.0371 32.44H0.899208C0.899208 32.44 0.907643 33.3046 0.924513 33.7348C1.60352 50.8071 15.6603 64.4379 32.8971 64.4379C50.0453 64.4379 64.0431 50.9505 64.857 34.0047C64.8823 33.486 64.895 32.44 64.895 32.44Z" fill="#3C3C3C"/>
<path d="M0.894989 32.44H13.0328C13.0328 21.4704 21.9233 12.58 32.8929 12.58C43.8625 12.58 52.7529 21.4704 52.7529 32.44H64.8908C64.8908 14.7689 50.564 0.442139 32.8929 0.442139C15.2217 0.442139 0.894989 14.7689 0.894989 32.44Z" fill="#006D68"/>
<path d="M32.8971 47.4922C41.2102 47.4922 47.9492 40.7531 47.9492 32.44C47.9492 24.127 41.2102 17.3879 32.8971 17.3879C24.584 17.3879 17.845 24.127 17.845 32.44C17.845 40.7531 24.584 47.4922 32.8971 47.4922Z" fill="#ACCA53"/>
<path d="M34.4323 32.44L32.8971 47.4922L31.3577 32.44H34.4323Z" fill="white"/>
<path d="M31.3577 32.44L32.8971 17.3879L34.4323 32.44H31.3577Z" fill="#3C3C3C"/>
</svg>
